<svg xmlns="http://www.w3.org/2000/svg" width="236.508" height="31.298" viewBox="0 0 236.508 31.298">
  <g id="f_logo" transform="translate(-146.429 -408.072)">
    <path id="Path_2" data-name="Path 2" d="M182.815,428.246h-8.5V431.5a.289.289,0,0,1-.328.346H162.539a.522.522,0,0,1-.588-.563l-.026-15a.519.519,0,0,1,.584-.564h11.448a.284.284,0,0,1,.321.347l.043,3.252h8.5l-.03-6.981a4.145,4.145,0,0,0-4.16-4.162h-32.2l7.006,7.125.053,16.984a6.764,6.764,0,0,0,2.046,5.052,6.9,6.9,0,0,0,5.063,2.06h18.082a4.144,4.144,0,0,0,4.165-4.162Z" transform="translate(0 -0.021)" fill="#2d2d2d"/>
    <path id="Path_3" data-name="Path 3" d="M438.739,415.281a6.948,6.948,0,0,0-2.063-5.054,6.835,6.835,0,0,0-5.046-2.054H409.417l.143,7.505.048,23.713h8.5l-.016-12.448h12.186l.016,12.448h8.5Zm-20.651,5.331-.032-3.816a.967.967,0,0,1,1.1-1.079h10.02a.942.942,0,0,1,1.07,1.079l.032,3.816Z" transform="translate(-55.858 -0.021)" fill="#2d2d2d"/>
    <path id="Path_4" data-name="Path 4" d="M236.726,415.714h19.74a.48.48,0,0,1,.544.564l.015,5.116a.477.477,0,0,1-.54.564H236.748l.009,5.924.018,11.507h8.5l-.029-10.233H249.9l8.457,10.233h9.756l-9.281-10.233a6.24,6.24,0,0,0,5.009-2.1,7.183,7.183,0,0,0,1.7-5.008l-.024-6.765a7.07,7.07,0,0,0-7.11-7.111H236.726Z" transform="translate(-19.179 -0.021)" fill="#2d2d2d"/>
    <path id="Path_5" data-name="Path 5" d="M363.846,415.714h19.74a.481.481,0,0,1,.544.564l.014,5.116a.476.476,0,0,1-.54.564H363.867l.01,5.924.018,11.507h8.5l-.029-10.233h4.652l8.457,10.233h9.757l-9.281-10.233a6.238,6.238,0,0,0,5.008-2.1,7.183,7.183,0,0,0,1.7-5.008l-.024-6.765a7.07,7.07,0,0,0-7.11-7.111H363.846Z" transform="translate(-46.178 -0.021)" fill="#2d2d2d"/>
    <path id="Path_6" data-name="Path 6" d="M250.1,423.339" transform="translate(-22.018 -3.243)" fill="#2d2d2d"/>
    <path id="Path_7" data-name="Path 7" d="M224.342,439.39l-.01-7.545H206.814l-.008-4.343h.008v-.557h15.559l-.012-6.331H206.814v-4.9H224.3l-.01-7.545H198.214l.073,7.545h.008l.011,11.788h0l.019,11.888Z" transform="translate(-10.999 -0.021)" fill="#2d2d2d"/>
    <path id="Path_8" data-name="Path 8" d="M307.981,439.39l-.01-7.545H290.453l-.008-4.343h.008v-.557h15.559L306,420.614H290.453v-4.9h17.489l-.01-7.545H281.915l.012,7.545h.008l.011,11.788h0l.019,11.888Z" transform="translate(-28.777 -0.021)" fill="#2d2d2d"/>
    <path id="Path_9" data-name="Path 9" d="M350.16,430.032a12.743,12.743,0,0,0-.967-4.355,7.526,7.526,0,0,0-2.7-3.467,4.7,4.7,0,0,0,1.111-1.825,10.605,10.605,0,0,0,.611-2.69,14.83,14.83,0,0,0,.008-2.967,8.654,8.654,0,0,0-.635-2.665,6.191,6.191,0,0,0-2.531-2.927,7.471,7.471,0,0,0-3.983-1.063H320.735l.016,7.5.016,11.678.016,12.043h23.206a4.91,4.91,0,0,0,3.61-1.389,8.135,8.135,0,0,0,2.047-3.443A12.8,12.8,0,0,0,350.16,430.032Zm-20.928-14.463h8.449a2.07,2.07,0,0,1,2.023,1.388,1.855,1.855,0,0,1,.183.825l-.008.611a2.12,2.12,0,0,1-.635,1.555,2.057,2.057,0,0,1-1.539.651h-8.473Zm12.1,14.011a2.013,2.013,0,0,1-.61,1.515,2.054,2.054,0,0,1-1.539.651h-9.933v-5.069h9.933a1.967,1.967,0,0,1,1.967,1.253,2.741,2.741,0,0,1,.19.952Z" transform="translate(-37.022 0)" fill="#2d2d2d"/>
  </g>
</svg>
